{
    "accessors" : [
        {
            "bufferView" : 0, 
            "componentType" : 5123, 
            "count" : 24132, 
            "max" : [
                4630
            ], 
            "min" : [
                0
            ], 
            "type" : "SCALAR"
        }, 
        {
            "bufferView" : 1, 
            "componentType" : 5126, 
            "count" : 4631, 
            "max" : [
                47.66154479980469, 
                16.972230911254883, 
                0.3892329931259155
            ], 
            "min" : [
                -47.66154479980469, 
                -12.70927619934082, 
                -182.23545837402344
            ], 
            "type" : "VEC3"
        }, 
        {
            "bufferView" : 2, 
            "componentType" : 5126, 
            "count" : 4631, 
            "max" : [
                0.999359130859375, 
                0.9996337890625, 
                0.99993896484375
            ], 
            "min" : [
                -0.999359130859375, 
                -0.999969482421875, 
                -0.99981689453125
            ], 
            "type" : "VEC3"
        }, 
        {
            "bufferView" : 3, 
            "componentType" : 5126, 
            "count" : 4631, 
            "max" : [
                1.0, 
                0.9998430013656616, 
                0.9817709922790527, 
                1.0
            ], 
            "min" : [
                -0.9999912977218628, 
                -0.9998430609703064, 
                -0.9817661046981812, 
                1.0
            ], 
            "type" : "VEC4"
        }, 
        {
            "bufferView" : 4, 
            "componentType" : 5126, 
            "count" : 4631, 
            "max" : [
                0.9889219999313354, 
                0.9831240009516478
            ], 
            "min" : [
                0.01107800006866455, 
                0.013381481170654297
            ], 
            "type" : "VEC2"
        }, 
        {
            "bufferView" : 5, 
            "componentType" : 5126, 
            "count" : 4631, 
            "max" : [
                4.741692543029785, 
                12.752826690673828, 
                5.697990417480469
            ], 
            "min" : [
                -5.158404350280762, 
                -0.8021246790885925, 
                -3.6884765625
            ], 
            "type" : "VEC3"
        }, 
        {
            "bufferView" : 6, 
            "componentType" : 5126, 
            "count" : 4631, 
            "max" : [
                0.4981808662414551, 
                0.08018642663955688, 
                0.7629941701889038
            ], 
            "min" : [
                -0.5283860564231873, 
                -1.070525884628296, 
                -0.4207689166069031
            ], 
            "type" : "VEC3"
        }, 
        {
            "bufferView" : 7, 
            "componentType" : 5126, 
            "count" : 4631, 
            "max" : [
                0.9999929070472717, 
                0.999821126461029, 
                0.9851437211036682
            ], 
            "min" : [
                -0.9999221563339233, 
                -0.9997543692588806, 
                -0.997564435005188
            ], 
            "type" : "VEC3"
        }, 
        {
            "bufferView" : 8, 
            "componentType" : 5126, 
            "count" : 4631, 
            "max" : [
                5.650607109069824, 
                5.39238166809082, 
                2.949432373046875
            ], 
            "min" : [
                -5.650603294372559, 
                -4.194296360015869, 
                -3.3581085205078125
            ], 
            "type" : "VEC3"
        }, 
        {
            "bufferView" : 9, 
            "componentType" : 5126, 
            "count" : 4631, 
            "max" : [
                1.2967793941497803, 
                0.5007381439208984, 
                0.2686081528663635
            ], 
            "min" : [
                -1.2967045307159424, 
                -0.7875807285308838, 
                -1.9689414501190186
            ], 
            "type" : "VEC3"
        }, 
        {
            "bufferView" : 10, 
            "componentType" : 5126, 
            "count" : 4631, 
            "max" : [
                1.0, 
                0.9998248219490051, 
                0.9921366572380066
            ], 
            "min" : [
                -0.9999914169311523, 
                -0.9998879432678223, 
                -0.9922009110450745
            ], 
            "type" : "VEC3"
        }, 
        {
            "bufferView" : 11, 
            "componentType" : 5126, 
            "count" : 4631, 
            "max" : [
                5.496955871582031, 
                0.0, 
                0.0
            ], 
            "min" : [
                -5.496955871582031, 
                0.0, 
                -42.32228088378906
            ], 
            "type" : "VEC3"
        }, 
        {
            "bufferView" : 12, 
            "componentType" : 5126, 
            "count" : 4631, 
            "max" : [
                0.15548253059387207, 
                0.1613861322402954, 
                0.3302838206291199
            ], 
            "min" : [
                -0.1554834246635437, 
                -0.16120052337646484, 
                -0.18379783630371094
            ], 
            "type" : "VEC3"
        }, 
        {
            "bufferView" : 13, 
            "componentType" : 5126, 
            "count" : 4631, 
            "max" : [
                1.0, 
                0.9999620914459229, 
                0.9851437211036682
            ], 
            "min" : [
                -0.9997010231018066, 
                -0.9999622702598572, 
                -0.9856481552124023
            ], 
            "type" : "VEC3"
        }, 
        {
            "bufferView" : 14, 
            "componentType" : 5126, 
            "count" : 4631, 
            "max" : [
                1.3094873428344727, 
                0.12235450744628906, 
                1.4491729736328125
            ], 
            "min" : [
                -1.3071637153625488, 
                -0.29369354248046875, 
                -0.005828857421875
            ], 
            "type" : "VEC3"
        }, 
        {
            "bufferView" : 15, 
            "componentType" : 5126, 
            "count" : 4631, 
            "max" : [
                0.20685362815856934, 
                0.09209144115447998, 
                0.3598332405090332
            ], 
            "min" : [
                -0.2070152759552002, 
                -0.38286536931991577, 
                -0.22216764092445374
            ], 
            "type" : "VEC3"
        }, 
        {
            "bufferView" : 16, 
            "componentType" : 5126, 
            "count" : 4631, 
            "max" : [
                1.0, 
                0.999821126461029, 
                0.9851437211036682
            ], 
            "min" : [
                -0.9999221563339233, 
                -0.9998095035552979, 
                -0.997564435005188
            ], 
            "type" : "VEC3"
        }, 
        {
            "bufferView" : 17, 
            "componentType" : 5126, 
            "count" : 4631, 
            "max" : [
                0.28614944219589233, 
                9.371332168579102, 
                0.0
            ], 
            "min" : [
                -0.2861461639404297, 
                0.0, 
                -2.095489501953125
            ], 
            "type" : "VEC3"
        }, 
        {
            "bufferView" : 18, 
            "componentType" : 5126, 
            "count" : 4631, 
            "max" : [
                0.3951096534729004, 
                3.0502676963806152e-05, 
                0.45749688148498535
            ], 
            "min" : [
                -0.3951096534729004, 
                -0.9359007477760315, 
                -0.4872792959213257
            ], 
            "type" : "VEC3"
        }, 
        {
            "bufferView" : 19, 
            "componentType" : 5126, 
            "count" : 4631, 
            "max" : [
                1.0, 
                0.999821126461029, 
                0.9851437211036682
            ], 
            "min" : [
                -0.9999221563339233, 
                -0.9998095035552979, 
                -0.997564435005188
            ], 
            "type" : "VEC3"
        }, 
        {
            "bufferView" : 20, 
            "componentType" : 5126, 
            "count" : 4631, 
            "max" : [
                1.0053377151489258, 
                0.49565887451171875, 
                0.0
            ], 
            "min" : [
                -1.0053367614746094, 
                -0.19640254974365234, 
                -2.44561767578125
            ], 
            "type" : "VEC3"
        }, 
        {
            "bufferView" : 21, 
            "componentType" : 5126, 
            "count" : 4631, 
            "max" : [
                0.32806408405303955, 
                0.0991753339767456, 
                0.2021906077861786
            ], 
            "min" : [
                -0.3280864655971527, 
                -0.2905609607696533, 
                -0.33876264095306396
            ], 
            "type" : "VEC3"
        }, 
        {
            "bufferView" : 22, 
            "componentType" : 5126, 
            "count" : 4631, 
            "max" : [
                1.0, 
                0.999821126461029, 
                0.9851437211036682
            ], 
            "min" : [
                -0.9999221563339233, 
                -0.9998095035552979, 
                -0.997564435005188
            ], 
            "type" : "VEC3"
        }, 
        {
            "bufferView" : 23, 
            "componentType" : 5126, 
            "count" : 4631, 
            "max" : [
                6.33404541015625, 
                6.0326714515686035, 
                3.27740478515625
            ], 
            "min" : [
                -6.2099504470825195, 
                -6.577016830444336, 
                -7.103691101074219
            ], 
            "type" : "VEC3"
        }, 
        {
            "bufferView" : 24, 
            "componentType" : 5126, 
            "count" : 4631, 
            "max" : [
                1.1983047723770142, 
                1.109953761100769, 
                0.6180949211120605
            ], 
            "min" : [
                -1.124881386756897, 
                -1.6512351036071777, 
                -1.24900221824646
            ], 
            "type" : "VEC3"
        }, 
        {
            "bufferView" : 25, 
            "componentType" : 5126, 
            "count" : 4631, 
            "max" : [
                0.9999796152114868, 
                0.999919593334198, 
                0.9973226189613342
            ], 
            "min" : [
                -0.9999364614486694, 
                -0.9999920129776001, 
                -0.9973918199539185
            ], 
            "type" : "VEC3"
        }, 
        {
            "bufferView" : 26, 
            "componentType" : 5126, 
            "count" : 4631, 
            "max" : [
                12.291040420532227, 
                9.000301361083984, 
                5.35650634765625
            ], 
            "min" : [
                -11.42733383178711, 
                -13.267704010009766, 
                -16.978469848632812
            ], 
            "type" : "VEC3"
        }, 
        {
            "bufferView" : 27, 
            "componentType" : 5126, 
            "count" : 4631, 
            "max" : [
                0.5757479667663574, 
                0.9710893034934998, 
                0.9417154788970947
            ], 
            "min" : [
                -0.5405958890914917, 
                -0.2900826334953308, 
                -0.09191468358039856
            ], 
            "type" : "VEC3"
        }, 
        {
            "bufferView" : 28, 
            "componentType" : 5126, 
            "count" : 4631, 
            "max" : [
                0.9999991059303284, 
                0.999821126461029, 
                0.9983583688735962
            ], 
            "min" : [
                -0.9999975562095642, 
                -0.9998095035552979, 
                -0.9993159770965576
            ], 
            "type" : "VEC3"
        }, 
        {
            "bufferView" : 29, 
            "componentType" : 5126, 
            "count" : 4631, 
            "max" : [
                2.6484627723693848, 
                1.8616085052490234, 
                1.17193603515625
            ], 
            "min" : [
                -2.648381233215332, 
                -1.2958998680114746, 
                -0.85150146484375
            ], 
            "type" : "VEC3"
        }, 
        {
            "bufferView" : 30, 
            "componentType" : 5126, 
            "count" : 4631, 
            "max" : [
                0.6806632280349731, 
                0.25057554244995117, 
                0.40185558795928955
            ], 
            "min" : [
                -0.682184100151062, 
                -0.36307477951049805, 
                -0.702523410320282
            ], 
            "type" : "VEC3"
        }, 
        {
            "bufferView" : 31, 
            "componentType" : 5126, 
            "count" : 4631, 
            "max" : [
                1.0, 
                0.999821126461029, 
                0.9851437211036682
            ], 
            "min" : [
                -0.9999221563339233, 
                -0.9998095035552979, 
                -0.997564435005188
            ], 
            "type" : "VEC3"
        }, 
        {
            "bufferView" : 32, 
            "componentType" : 5126, 
            "count" : 4631, 
            "max" : [
                40.54200744628906, 
                55.14583206176758, 
                7.8298187255859375
            ], 
            "min" : [
                -26.11034393310547, 
                -15.23134708404541, 
                -30.287330627441406
            ], 
            "type" : "VEC3"
        }, 
        {
            "bufferView" : 33, 
            "componentType" : 5126, 
            "count" : 4631, 
            "max" : [
                0.820046067237854, 
                0.917983889579773, 
                1.0760416984558105
            ], 
            "min" : [
                -0.5857363939285278, 
                -0.8992109298706055, 
                -1.1735424995422363
            ], 
            "type" : "VEC3"
        }, 
        {
            "bufferView" : 34, 
            "componentType" : 5126, 
            "count" : 4631, 
            "max" : [
                0.9994708895683289, 
                0.9991506934165955, 
                0.9992210865020752
            ], 
            "min" : [
                -0.999983549118042, 
                -0.9995112419128418, 
                -0.9988576769828796
            ], 
            "type" : "VEC3"
        }
    ], 
    "asset" : {
        "generator" : "Khronos Blender glTF 2.0 exporter", 
        "version" : "2.0"
    }, 
    "bufferViews" : [
        {
            "buffer" : 0, 
            "byteLength" : 48264, 
            "byteOffset" : 0, 
            "target" : 34963
        }, 
        {
            "buffer" : 0, 
            "byteLength" : 55572, 
            "byteOffset" : 48264, 
            "target" : 34962
        }, 
        {
            "buffer" : 0, 
            "byteLength" : 55572, 
            "byteOffset" : 103836, 
            "target" : 34962
        }, 
        {
            "buffer" : 0, 
            "byteLength" : 74096, 
            "byteOffset" : 159408, 
            "target" : 34962
        }, 
        {
            "buffer" : 0, 
            "byteLength" : 37048, 
            "byteOffset" : 233504, 
            "target" : 34962
        }, 
        {
            "buffer" : 0, 
            "byteLength" : 55572, 
            "byteOffset" : 270552
        }, 
        {
            "buffer" : 0, 
            "byteLength" : 55572, 
            "byteOffset" : 326124
        }, 
        {
            "buffer" : 0, 
            "byteLength" : 55572, 
            "byteOffset" : 381696
        }, 
        {
            "buffer" : 0, 
            "byteLength" : 55572, 
            "byteOffset" : 437268
        }, 
        {
            "buffer" : 0, 
            "byteLength" : 55572, 
            "byteOffset" : 492840
        }, 
        {
            "buffer" : 0, 
            "byteLength" : 55572, 
            "byteOffset" : 548412
        }, 
        {
            "buffer" : 0, 
            "byteLength" : 55572, 
            "byteOffset" : 603984
        }, 
        {
            "buffer" : 0, 
            "byteLength" : 55572, 
            "byteOffset" : 659556
        }, 
        {
            "buffer" : 0, 
            "byteLength" : 55572, 
            "byteOffset" : 715128
        }, 
        {
            "buffer" : 0, 
            "byteLength" : 55572, 
            "byteOffset" : 770700
        }, 
        {
            "buffer" : 0, 
            "byteLength" : 55572, 
            "byteOffset" : 826272
        }, 
        {
            "buffer" : 0, 
            "byteLength" : 55572, 
            "byteOffset" : 881844
        }, 
        {
            "buffer" : 0, 
            "byteLength" : 55572, 
            "byteOffset" : 937416
        }, 
        {
            "buffer" : 0, 
            "byteLength" : 55572, 
            "byteOffset" : 992988
        }, 
        {
            "buffer" : 0, 
            "byteLength" : 55572, 
            "byteOffset" : 1048560
        }, 
        {
            "buffer" : 0, 
            "byteLength" : 55572, 
            "byteOffset" : 1104132
        }, 
        {
            "buffer" : 0, 
            "byteLength" : 55572, 
            "byteOffset" : 1159704
        }, 
        {
            "buffer" : 0, 
            "byteLength" : 55572, 
            "byteOffset" : 1215276
        }, 
        {
            "buffer" : 0, 
            "byteLength" : 55572, 
            "byteOffset" : 1270848
        }, 
        {
            "buffer" : 0, 
            "byteLength" : 55572, 
            "byteOffset" : 1326420
        }, 
        {
            "buffer" : 0, 
            "byteLength" : 55572, 
            "byteOffset" : 1381992
        }, 
        {
            "buffer" : 0, 
            "byteLength" : 55572, 
            "byteOffset" : 1437564
        }, 
        {
            "buffer" : 0, 
            "byteLength" : 55572, 
            "byteOffset" : 1493136
        }, 
        {
            "buffer" : 0, 
            "byteLength" : 55572, 
            "byteOffset" : 1548708
        }, 
        {
            "buffer" : 0, 
            "byteLength" : 55572, 
            "byteOffset" : 1604280
        }, 
        {
            "buffer" : 0, 
            "byteLength" : 55572, 
            "byteOffset" : 1659852
        }, 
        {
            "buffer" : 0, 
            "byteLength" : 55572, 
            "byteOffset" : 1715424
        }, 
        {
            "buffer" : 0, 
            "byteLength" : 55572, 
            "byteOffset" : 1770996
        }, 
        {
            "buffer" : 0, 
            "byteLength" : 55572, 
            "byteOffset" : 1826568
        }, 
        {
            "buffer" : 0, 
            "byteLength" : 55572, 
            "byteOffset" : 1882140
        }
    ], 
    "buffers" : [
        {
            "byteLength" : 1937712, 
            "uri" : "statuette_v3.bin"
        }
    ], 
    "images" : [
        {
            "uri" : "texture_v3.png"
        }
    ], 
    "materials" : [
        {
            "emissiveFactor" : [
                0.26999998092651367, 
                0.26629240121806674, 
                0.23140895579680887
            ], 
            "name" : "statue_shader", 
            "pbrMetallicRoughness" : {
                "baseColorFactor" : [
                    0.5051244497299194, 
                    0.4981881930915577, 
                    0.4329271470995124, 
                    1.0
                ], 
                "baseColorTexture" : {
                    "index" : 0
                }, 
                "metallicFactor" : 0.0
            }
        }
    ], 
    "meshes" : [
        {
            "extras" : {
                "targetNames" : [
                    "obese", 
                    "costaud", 
                    "grand", 
                    "fache", 
                    "grosNez", 
                    "surpris", 
                    "mince", 
                    "cerveau", 
                    "gourmant", 
                    "pose"
                ]
            }, 
            "name" : "statue", 
            "primitives" : [
                {
                    "attributes" : {
                        "NORMAL" : 2, 
                        "POSITION" : 1, 
                        "TANGENT" : 3, 
                        "TEXCOORD_0" : 4
                    }, 
                    "indices" : 0, 
                    "material" : 0, 
                    "targets" : [
                        {
                            "NORMAL" : 6, 
                            "POSITION" : 5, 
                            "TANGENT" : 7
                        }, 
                        {
                            "NORMAL" : 9, 
                            "POSITION" : 8, 
                            "TANGENT" : 10
                        }, 
                        {
                            "NORMAL" : 12, 
                            "POSITION" : 11, 
                            "TANGENT" : 13
                        }, 
                        {
                            "NORMAL" : 15, 
                            "POSITION" : 14, 
                            "TANGENT" : 16
                        }, 
                        {
                            "NORMAL" : 18, 
                            "POSITION" : 17, 
                            "TANGENT" : 19
                        }, 
                        {
                            "NORMAL" : 21, 
                            "POSITION" : 20, 
                            "TANGENT" : 22
                        }, 
                        {
                            "NORMAL" : 24, 
                            "POSITION" : 23, 
                            "TANGENT" : 25
                        }, 
                        {
                            "NORMAL" : 27, 
                            "POSITION" : 26, 
                            "TANGENT" : 28
                        }, 
                        {
                            "NORMAL" : 30, 
                            "POSITION" : 29, 
                            "TANGENT" : 31
                        }, 
                        {
                            "NORMAL" : 33, 
                            "POSITION" : 32, 
                            "TANGENT" : 34
                        }
                    ]
                }
            ], 
            "weights" : [
                0.0, 
                0.0, 
                0.0, 
                0.0, 
                0.0, 
                0.0, 
                0.0, 
                0.0, 
                0.0, 
                1.0
            ]
        }
    ], 
    "nodes" : [
        {
            "mesh" : 0, 
            "name" : "statue", 
            "rotation" : [
                0.7071068286895752, 
                0.0, 
                -0.0, 
                0.7071068286895752
            ], 
            "scale" : [
                0.05000000074505806, 
                0.05000000074505806, 
                0.05000000074505806
            ]
        }
    ], 
    "samplers" : [
        {}
    ], 
    "scene" : 0, 
    "scenes" : [
        {
            "name" : "Scene", 
            "nodes" : [
                0
            ]
        }
    ], 
    "textures" : [
        {
            "sampler" : 0, 
            "source" : 0
        }
    ]
}
