{
    "accessors" : [{
        "bufferView" : 0, 
        "componentType" : 5123, 
        "count" : 24132, 
        "max" : [4630], 
        "min" : [0], 
        "type" : "SCALAR"
    }, {
        "bufferView" : 1, 
        "componentType" : 5126, 
        "count" : 4631, 
        "max" : [47.6615, 16.9722, 0.389233], 
        "min" : [-47.6615, -12.7093, -182.235], 
        "type" : "VEC3"
    }, {
        "bufferView" : 2, 
        "componentType" : 5126, 
        "count" : 4631, 
        "max" : [0.999359, 0.999634, 0.999939], 
        "min" : [-0.999359, -0.999969, -0.999817], 
        "type" : "VEC3"
    }, {
        "bufferView" : 3, 
        "componentType" : 5126, 
        "count" : 4631, 
        "max" : [1, 0.999843, 0.981771, 1], 
        "min" : [-0.999991, -0.999843, -0.981766, 1], 
        "type" : "VEC4"
    }, {
        "bufferView" : 4, 
        "componentType" : 5126, 
        "count" : 4631, 
        "max" : [0.988922, 0.983124], 
        "min" : [0.011078, 0.013381], 
        "type" : "VEC2"
    }, {
        "bufferView" : 5, 
        "componentType" : 5126, 
        "count" : 4631, 
        "max" : [4.74169, 12.7528, 5.69799], 
        "min" : [-5.1584, -0.802125, -3.68848], 
        "type" : "VEC3"
    }, {
        "bufferView" : 6, 
        "componentType" : 5126, 
        "count" : 4631, 
        "max" : [0.498181, 0.080186, 0.762994], 
        "min" : [-0.528386, -1.07053, -0.420769], 
        "type" : "VEC3"
    }, {
        "bufferView" : 7, 
        "componentType" : 5126, 
        "count" : 4631, 
        "max" : [0.999993, 0.999821, 0.985144], 
        "min" : [-0.999922, -0.999754, -0.997564], 
        "type" : "VEC3"
    }, {
        "bufferView" : 8, 
        "componentType" : 5126, 
        "count" : 4631, 
        "max" : [5.65061, 5.39238, 2.94943], 
        "min" : [-5.6506, -4.1943, -3.35811], 
        "type" : "VEC3"
    }, {
        "bufferView" : 9, 
        "componentType" : 5126, 
        "count" : 4631, 
        "max" : [1.29678, 0.500738, 0.268608], 
        "min" : [-1.2967, -0.787581, -1.96894], 
        "type" : "VEC3"
    }, {
        "bufferView" : 10, 
        "componentType" : 5126, 
        "count" : 4631, 
        "max" : [1, 0.999825, 0.992137], 
        "min" : [-0.999991, -0.999888, -0.992201], 
        "type" : "VEC3"
    }, {
        "bufferView" : 11, 
        "componentType" : 5126, 
        "count" : 4631, 
        "max" : [5.49696, 0, 0], 
        "min" : [-5.49696, 0, -42.3223], 
        "type" : "VEC3"
    }, {
        "bufferView" : 12, 
        "componentType" : 5126, 
        "count" : 4631, 
        "max" : [0.155483, 0.161386, 0.330284], 
        "min" : [-0.155483, -0.161201, -0.183798], 
        "type" : "VEC3"
    }, {
        "bufferView" : 13, 
        "componentType" : 5126, 
        "count" : 4631, 
        "max" : [1, 0.999962, 0.985144], 
        "min" : [-0.999701, -0.999962, -0.985648], 
        "type" : "VEC3"
    }, {
        "bufferView" : 14, 
        "componentType" : 5126, 
        "count" : 4631, 
        "max" : [1.30949, 0.122355, 1.44917], 
        "min" : [-1.30716, -0.293694, -0.005829], 
        "type" : "VEC3"
    }, {
        "bufferView" : 15, 
        "componentType" : 5126, 
        "count" : 4631, 
        "max" : [0.206854, 0.092091, 0.359833], 
        "min" : [-0.207015, -0.382865, -0.222168], 
        "type" : "VEC3"
    }, {
        "bufferView" : 16, 
        "componentType" : 5126, 
        "count" : 4631, 
        "max" : [1, 0.999821, 0.985144], 
        "min" : [-0.999922, -0.99981, -0.997564], 
        "type" : "VEC3"
    }, {
        "bufferView" : 17, 
        "componentType" : 5126, 
        "count" : 4631, 
        "max" : [0.286149, 9.37133, 0], 
        "min" : [-0.286146, 0, -2.09549], 
        "type" : "VEC3"
    }, {
        "bufferView" : 18, 
        "componentType" : 5126, 
        "count" : 4631, 
        "max" : [0.39511, 3.1e-05, 0.457497], 
        "min" : [-0.39511, -0.935901, -0.487279], 
        "type" : "VEC3"
    }, {
        "bufferView" : 19, 
        "componentType" : 5126, 
        "count" : 4631, 
        "max" : [1, 0.999821, 0.985144], 
        "min" : [-0.999922, -0.99981, -0.997564], 
        "type" : "VEC3"
    }, {
        "bufferView" : 20, 
        "componentType" : 5126, 
        "count" : 4631, 
        "max" : [1.00534, 0.495659, 0], 
        "min" : [-1.00534, -0.196403, -2.44562], 
        "type" : "VEC3"
    }, {
        "bufferView" : 21, 
        "componentType" : 5126, 
        "count" : 4631, 
        "max" : [0.328064, 0.099175, 0.202191], 
        "min" : [-0.328086, -0.290561, -0.338763], 
        "type" : "VEC3"
    }, {
        "bufferView" : 22, 
        "componentType" : 5126, 
        "count" : 4631, 
        "max" : [1, 0.999821, 0.985144], 
        "min" : [-0.999922, -0.99981, -0.997564], 
        "type" : "VEC3"
    }, {
        "bufferView" : 23, 
        "componentType" : 5126, 
        "count" : 4631, 
        "max" : [6.33404, 6.03267, 3.2774], 
        "min" : [-6.20995, -6.57702, -7.10369], 
        "type" : "VEC3"
    }, {
        "bufferView" : 24, 
        "componentType" : 5126, 
        "count" : 4631, 
        "max" : [1.1983, 1.10995, 0.618095], 
        "min" : [-1.12488, -1.65124, -1.249], 
        "type" : "VEC3"
    }, {
        "bufferView" : 25, 
        "componentType" : 5126, 
        "count" : 4631, 
        "max" : [0.99998, 0.99992, 0.997323], 
        "min" : [-0.999936, -0.999992, -0.997392], 
        "type" : "VEC3"
    }, {
        "bufferView" : 26, 
        "componentType" : 5126, 
        "count" : 4631, 
        "max" : [12.291, 9.0003, 5.35651], 
        "min" : [-11.4273, -13.2677, -16.9785], 
        "type" : "VEC3"
    }, {
        "bufferView" : 27, 
        "componentType" : 5126, 
        "count" : 4631, 
        "max" : [0.575748, 0.971089, 0.941715], 
        "min" : [-0.540596, -0.290083, -0.091915], 
        "type" : "VEC3"
    }, {
        "bufferView" : 28, 
        "componentType" : 5126, 
        "count" : 4631, 
        "max" : [0.999999, 0.999821, 0.998358], 
        "min" : [-0.999998, -0.99981, -0.999316], 
        "type" : "VEC3"
    }, {
        "bufferView" : 29, 
        "componentType" : 5126, 
        "count" : 4631, 
        "max" : [2.64846, 1.86161, 1.17194], 
        "min" : [-2.64838, -1.2959, -0.851501], 
        "type" : "VEC3"
    }, {
        "bufferView" : 30, 
        "componentType" : 5126, 
        "count" : 4631, 
        "max" : [0.680663, 0.250576, 0.401856], 
        "min" : [-0.682184, -0.363075, -0.702523], 
        "type" : "VEC3"
    }, {
        "bufferView" : 31, 
        "componentType" : 5126, 
        "count" : 4631, 
        "max" : [1, 0.999821, 0.985144], 
        "min" : [-0.999922, -0.99981, -0.997564], 
        "type" : "VEC3"
    }, {
        "bufferView" : 32, 
        "componentType" : 5126, 
        "count" : 4631, 
        "max" : [40.542, 55.1458, 7.82982], 
        "min" : [-26.1103, -15.2313, -30.2873], 
        "type" : "VEC3"
    }, {
        "bufferView" : 33, 
        "componentType" : 5126, 
        "count" : 4631, 
        "max" : [0.820046, 0.917984, 1.07604], 
        "min" : [-0.585736, -0.899211, -1.17354], 
        "type" : "VEC3"
    }, {
        "bufferView" : 34, 
        "componentType" : 5126, 
        "count" : 4631, 
        "max" : [0.999471, 0.999151, 0.999221], 
        "min" : [-0.999984, -0.999511, -0.998858], 
        "type" : "VEC3"
    }], 
    "asset" : {
        "generator" : "Khronos Blender glTF 2.0 exporter", 
        "version" : "2.0"
    }, 
    "bufferViews" : [{
        "buffer" : 0, 
        "byteLength" : 48264, 
        "byteOffset" : 0, 
        "target" : 34963
    }, {
        "buffer" : 0, 
        "byteLength" : 55572, 
        "byteOffset" : 48264, 
        "target" : 34962
    }, {
        "buffer" : 0, 
        "byteLength" : 55572, 
        "byteOffset" : 103836, 
        "target" : 34962
    }, {
        "buffer" : 0, 
        "byteLength" : 74096, 
        "byteOffset" : 159408, 
        "target" : 34962
    }, {
        "buffer" : 0, 
        "byteLength" : 37048, 
        "byteOffset" : 233504, 
        "target" : 34962
    }, {
        "buffer" : 0, 
        "byteLength" : 55572, 
        "byteOffset" : 270552
    }, {
        "buffer" : 0, 
        "byteLength" : 55572, 
        "byteOffset" : 326124
    }, {
        "buffer" : 0, 
        "byteLength" : 55572, 
        "byteOffset" : 381696
    }, {
        "buffer" : 0, 
        "byteLength" : 55572, 
        "byteOffset" : 437268
    }, {
        "buffer" : 0, 
        "byteLength" : 55572, 
        "byteOffset" : 492840
    }, {
        "buffer" : 0, 
        "byteLength" : 55572, 
        "byteOffset" : 548412
    }, {
        "buffer" : 0, 
        "byteLength" : 55572, 
        "byteOffset" : 603984
    }, {
        "buffer" : 0, 
        "byteLength" : 55572, 
        "byteOffset" : 659556
    }, {
        "buffer" : 0, 
        "byteLength" : 55572, 
        "byteOffset" : 715128
    }, {
        "buffer" : 0, 
        "byteLength" : 55572, 
        "byteOffset" : 770700
    }, {
        "buffer" : 0, 
        "byteLength" : 55572, 
        "byteOffset" : 826272
    }, {
        "buffer" : 0, 
        "byteLength" : 55572, 
        "byteOffset" : 881844
    }, {
        "buffer" : 0, 
        "byteLength" : 55572, 
        "byteOffset" : 937416
    }, {
        "buffer" : 0, 
        "byteLength" : 55572, 
        "byteOffset" : 992988
    }, {
        "buffer" : 0, 
        "byteLength" : 55572, 
        "byteOffset" : 1048560
    }, {
        "buffer" : 0, 
        "byteLength" : 55572, 
        "byteOffset" : 1104132
    }, {
        "buffer" : 0, 
        "byteLength" : 55572, 
        "byteOffset" : 1159704
    }, {
        "buffer" : 0, 
        "byteLength" : 55572, 
        "byteOffset" : 1215276
    }, {
        "buffer" : 0, 
        "byteLength" : 55572, 
        "byteOffset" : 1270848
    }, {
        "buffer" : 0, 
        "byteLength" : 55572, 
        "byteOffset" : 1326420
    }, {
        "buffer" : 0, 
        "byteLength" : 55572, 
        "byteOffset" : 1381992
    }, {
        "buffer" : 0, 
        "byteLength" : 55572, 
        "byteOffset" : 1437564
    }, {
        "buffer" : 0, 
        "byteLength" : 55572, 
        "byteOffset" : 1493136
    }, {
        "buffer" : 0, 
        "byteLength" : 55572, 
        "byteOffset" : 1548708
    }, {
        "buffer" : 0, 
        "byteLength" : 55572, 
        "byteOffset" : 1604280
    }, {
        "buffer" : 0, 
        "byteLength" : 55572, 
        "byteOffset" : 1659852
    }, {
        "buffer" : 0, 
        "byteLength" : 55572, 
        "byteOffset" : 1715424
    }, {
        "buffer" : 0, 
        "byteLength" : 55572, 
        "byteOffset" : 1770996
    }, {
        "buffer" : 0, 
        "byteLength" : 55572, 
        "byteOffset" : 1826568
    }, {
        "buffer" : 0, 
        "byteLength" : 55572, 
        "byteOffset" : 1882140
    }], 
    "buffers" : [{
        "byteLength" : 1937712, 
        "uri" : "statuette.bin"
    }], 
    "images" : [{
        "uri" : "texture.png"
    }], 
    "materials" : [{
        "emissiveFactor" : [0.27, 0.266292, 0.231409], 
        "name" : "statue_shader", 
        "pbrMetallicRoughness" : {
            "baseColorFactor" : [0.505124, 0.498188, 0.432927, 1], 
            "baseColorTexture" : {
                "index" : 0
            }, 
            "metallicFactor" : 0
        }
    }], 
    "meshes" : [{
        "extras" : {
            "targetNames" : ["obese", "costaud", "grand", "fache", "grosNez", "surpris", "mince", "cerveau", "gourmant", "pose"]
        }, 
        "name" : "statue", 
        "primitives" : [{
            "attributes" : {
                "NORMAL" : 2, 
                "POSITION" : 1, 
                "TANGENT" : 3, 
                "TEXCOORD_0" : 4
            }, 
            "indices" : 0, 
            "material" : 0, 
            "targets" : [{
                "NORMAL" : 6, 
                "POSITION" : 5, 
                "TANGENT" : 7
            }, {
                "NORMAL" : 9, 
                "POSITION" : 8, 
                "TANGENT" : 10
            }, {
                "NORMAL" : 12, 
                "POSITION" : 11, 
                "TANGENT" : 13
            }, {
                "NORMAL" : 15, 
                "POSITION" : 14, 
                "TANGENT" : 16
            }, {
                "NORMAL" : 18, 
                "POSITION" : 17, 
                "TANGENT" : 19
            }, {
                "NORMAL" : 21, 
                "POSITION" : 20, 
                "TANGENT" : 22
            }, {
                "NORMAL" : 24, 
                "POSITION" : 23, 
                "TANGENT" : 25
            }, {
                "NORMAL" : 27, 
                "POSITION" : 26, 
                "TANGENT" : 28
            }, {
                "NORMAL" : 30, 
                "POSITION" : 29, 
                "TANGENT" : 31
            }, {
                "NORMAL" : 33, 
                "POSITION" : 32, 
                "TANGENT" : 34
            }]
        }], 
        "weights" : [0, 0, 0, 0, 0, 0, 0, 0, 0, 1]
    }], 
    "nodes" : [{
        "mesh" : 0, 
        "name" : "statue", 
        "rotation" : [0.707107, 0, -0, 0.707107], 
        "scale" : [0.05, 0.05, 0.05]
    }], 
    "samplers" : [{}], 
    "scene" : 0, 
    "scenes" : [{
        "name" : "Scene", 
        "nodes" : [0]
    }], 
    "textures" : [{
        "sampler" : 0, 
        "source" : 0
    }]
}
