{
    "accessors" : [
        {
            "bufferView" : 0, 
            "componentType" : 5121, 
            "count" : 372, 
            "max" : [
                97
            ], 
            "min" : [
                0
            ], 
            "type" : "SCALAR"
        }, 
        {
            "bufferView" : 1, 
            "componentType" : 5126, 
            "count" : 98, 
            "max" : [
                1.0, 
                0.9999999403953552, 
                1.1655333042144775
            ], 
            "min" : [
                -0.9999998807907104, 
                -0.9999998807907104, 
                -1.0
            ], 
            "type" : "VEC3"
        }, 
        {
            "bufferView" : 2, 
            "componentType" : 5126, 
            "count" : 98, 
            "max" : [
                1.0, 
                1.0, 
                1.0
            ], 
            "min" : [
                -1.0, 
                -1.0, 
                -1.0
            ], 
            "type" : "VEC3"
        }, 
        {
            "bufferView" : 3, 
            "componentType" : 5126, 
            "count" : 98, 
            "max" : [
                1.0, 
                1.0, 
                0.19781839847564697, 
                1.0
            ], 
            "min" : [
                -1.0, 
                -1.0, 
                -0.19781576097011566, 
                1.0
            ], 
            "type" : "VEC4"
        }, 
        {
            "bufferView" : 4, 
            "componentType" : 5126, 
            "count" : 98, 
            "max" : [
                1.0, 
                1.0
            ], 
            "min" : [
                0.0, 
                0.0
            ], 
            "type" : "VEC2"
        }, 
        {
            "bufferView" : 5, 
            "componentType" : 5126, 
            "count" : 98, 
            "max" : [
                2.0, 
                1.9995415210723877, 
                0.0
            ], 
            "min" : [
                -1.9999996423721313, 
                -1.9995421171188354, 
                -4.055034160614014
            ], 
            "type" : "VEC3"
        }, 
        {
            "bufferView" : 6, 
            "componentType" : 5126, 
            "count" : 98, 
            "max" : [
                0.10559055209159851, 
                0.1055767834186554, 
                0.11837825179100037
            ], 
            "min" : [
                -0.10559061169624329, 
                -0.10557767748832703, 
                -2.2411346435546875e-05
            ], 
            "type" : "VEC3"
        }, 
        {
            "bufferView" : 7, 
            "componentType" : 5126, 
            "count" : 98, 
            "max" : [
                1.0, 
                0.9999999403953552, 
                0.9463366270065308
            ], 
            "min" : [
                -1.0, 
                -1.0, 
                -0.9463366866111755
            ], 
            "type" : "VEC3"
        }
    ], 
    "asset" : {
        "generator" : "Khronos Blender glTF 2.0 exporter", 
        "version" : "2.0"
    }, 
    "bufferViews" : [
        {
            "buffer" : 0, 
            "byteLength" : 372, 
            "byteOffset" : 0, 
            "target" : 34963
        }, 
        {
            "buffer" : 0, 
            "byteLength" : 1176, 
            "byteOffset" : 372, 
            "target" : 34962
        }, 
        {
            "buffer" : 0, 
            "byteLength" : 1176, 
            "byteOffset" : 1548, 
            "target" : 34962
        }, 
        {
            "buffer" : 0, 
            "byteLength" : 1568, 
            "byteOffset" : 2724, 
            "target" : 34962
        }, 
        {
            "buffer" : 0, 
            "byteLength" : 784, 
            "byteOffset" : 4292, 
            "target" : 34962
        }, 
        {
            "buffer" : 0, 
            "byteLength" : 1176, 
            "byteOffset" : 5076
        }, 
        {
            "buffer" : 0, 
            "byteLength" : 1176, 
            "byteOffset" : 6252
        }, 
        {
            "buffer" : 0, 
            "byteLength" : 1176, 
            "byteOffset" : 7428
        }
    ], 
    "buffers" : [
        {
            "byteLength" : 8604, 
            "uri" : "balloon.bin"
        }
    ], 
    "materials" : [
        {
            "name" : "lambert1", 
            "pbrMetallicRoughness" : {
                "baseColorFactor" : [
                    0.4000000059604645, 
                    0.4000000059604645, 
                    0.4000000059604645, 
                    1.0
                ], 
                "metallicFactor" : 0.0
            }
        }
    ], 
    "meshes" : [
        {
            "extras" : {
                "targetNames" : [
                    "gros"
                ]
            }, 
            "name" : "Untitled", 
            "primitives" : [
                {
                    "attributes" : {
                        "NORMAL" : 2, 
                        "POSITION" : 1, 
                        "TANGENT" : 3, 
                        "TEXCOORD_0" : 4
                    }, 
                    "indices" : 0, 
                    "material" : 0, 
                    "targets" : [
                        {
                            "NORMAL" : 6, 
                            "POSITION" : 5, 
                            "TANGENT" : 7
                        }
                    ]
                }
            ], 
            "weights" : [
                0.0
            ]
        }
    ], 
    "nodes" : [
        {
            "mesh" : 0, 
            "name" : "balloon", 
            "rotation" : [
                0.7071068286895752, 
                0.0, 
                -0.0, 
                0.7071067094802856
            ], 
            "scale" : [
                0.5, 
                0.5, 
                0.5
            ], 
            "translation" : [
                0.0, 
                2.0, 
                -0.0
            ]
        }
    ], 
    "scene" : 0, 
    "scenes" : [
        {
            "name" : "Scene", 
            "nodes" : [
                0
            ]
        }
    ]
}
